<svg id="_77.svg" data-name="77.svg" xmlns="http://www.w3.org/2000/svg" width="252.969" height="239.87" viewBox="0 0 252.969 239.87">
  <defs>
    <style>
      .cls-1 {
        fill: #212337;
      }

      .cls-1, .cls-2 {
        fill-rule: evenodd;
      }

      .cls-2 {
        fill: #f7d038;
      }
    </style>
  </defs>
  <path class="cls-1" d="M519.466,1536.75l-3.24,3.26c-3.735,3.74-8.889,5.72-14.9,5.72a31.937,31.937,0,0,1-8.55-1.25l-34.9,34.94a16.867,16.867,0,0,1-12.15,4.83c-6.156,0-12.855-2.82-18.286-8.26-9.494-9.5-11.007-22.88-3.437-30.47,0.867-.86,26.671-26.7,34.9-34.95-0.161-.58-0.34-1.16-0.47-1.74-2-8.84-.251-16.56,4.914-21.73l3.235-3.25c3.74-3.75,8.894-5.73,14.91-5.73,9.745,0,20.82,5.26,29.622,14.07,6.755,6.76,11.467,14.87,13.266,22.83C526.378,1523.86,524.631,1531.58,519.466,1536.75Zm-55.993-15.63c-10.215,10.23-31.139,31.19-31.918,31.97-3.167,3.17-1.56,10.34,3.438,15.34s12.15,6.59,15.327,3.43l31.914-31.96A54.662,54.662,0,0,1,463.473,1521.12Zm50.484-3.74c-1.336-5.93-5.128-12.35-10.4-17.63-6.74-6.74-15.2-10.93-22.067-10.93-3.167,0-5.64.87-7.351,2.58l-3.235,3.25c-3.349,3.36-2.723,8.85-2.05,11.82,1.335,5.94,5.128,12.36,10.4,17.63,6.736,6.74,15.192,10.93,22.068,10.93,3.167,0,5.635-.87,7.351-2.58l3.234-3.25C515.256,1525.84,514.63,1520.35,513.957,1517.38Zm-114.789,11.3c-11.911,11.94-4.68,39.33,15.8,59.81l-7.554,7.56c-15.793-15.8-24.445-34.48-24.766-50.35-4.294,6.16-6.141,15.58-4.966,26.03a61.539,61.539,0,0,0,17.633,36.44c20.472,20.48,47.835,27.69,59.75,15.77l3.194-3.19A59.1,59.1,0,0,1,436,1615.73a84.074,84.074,0,0,1-11.963-6.29l5.708-9.05a71.83,71.83,0,0,0,10.413,5.49c14.513,6.13,27.42,5.52,34.551-1.62,6.183-6.18,7.481-16.86,3.559-29.27l10.183-3.23c5.17,16.35,2.911,30.96-6.187,40.07l-19.642,19.67c-6.083,6.09-14.358,9.01-23.659,9.01-16.037,0-35.116-8.68-51.205-24.78a72.24,72.24,0,0,1-20.695-42.8c-1.722-15.32,2.107-29.32,10.245-37.48l14.3-14.32s0,0,0-.01h0c9.3-9.31,24.22-11.47,40.932-5.92l-3.36,10.16C416.431,1521.13,405.5,1522.34,399.168,1528.68Zm-21.223,96.34-41.11,52.91-25.646-25.67,7.554-7.57,17.091,17.11,33.68-43.35Z" transform="translate(-272.219 -1478.13)"/>
  <path id="Shape_3_copy_4" data-name="Shape 3 copy 4" class="cls-2" d="M341.677,1718a69.525,69.525,0,1,1,21.155-135.77l-3.246,10.2a58.849,58.849,0,1,0,40.855,56.05,60.362,60.362,0,0,0-.569-8.24l10.58-1.47A69.576,69.576,0,0,1,341.677,1718Z" transform="translate(-272.219 -1478.13)"/>
</svg>

